<svg width="32" height="32" viewBox="0 0 32 32" xmlns="http://www.w3.org/2000/svg">
  <defs>
    <!-- Gradient matching your hero heading -->
    <linearGradient id="grad" x1="0%" y1="0%" x2="100%" y2="100%">
      <stop offset="0%" style="stop-color:#667eea;stop-opacity:1" />
      <stop offset="25%" style="stop-color:#764ba2;stop-opacity:1" />
      <stop offset="50%" style="stop-color:#f093fb;stop-opacity:1" />
      <stop offset="75%" style="stop-color:#f5576c;stop-opacity:1" />
      <stop offset="100%" style="stop-color:#4facfe;stop-opacity:1" />
    </linearGradient>
    
    <!-- Background gradient -->
    <linearGradient id="bgGrad" x1="0%" y1="0%" x2="100%" y2="100%">
      <stop offset="0%" style="stop-color:#0f0f23;stop-opacity:1" />
      <stop offset="50%" style="stop-color:#1a1a2e;stop-opacity:1" />
      <stop offset="100%" style="stop-color:#16213e;stop-opacity:1" />
    </linearGradient>
  </defs>
  
  <!-- Background -->
  <rect width="32" height="32" fill="url(#bgGrad)" rx="6"/>
  
  <!-- Letter R -->
  <path d="M8 6 L8 26 L10.5 26 L10.5 17.5 L17 17.5 L21 26 L24 26 L19.5 17 
           C21.5 16.2 23 14.3 23 12 C23 9.2 20.8 7 18 7 L8 6 Z 
           M10.5 8.5 L17.5 8.5 C19.4 8.5 20.5 9.6 20.5 12 
           C20.5 14.4 19.4 15.5 17.5 15.5 L10.5 15.5 L10.5 8.5 Z" 
        fill="url(#grad)" 
        font-weight="900"/>
</svg>
